HIERARCHY
ROOT SimulationBone
{
	OFFSET 0.000000 0.000000 0.000000
	CHANNELS 6 Xposition Yposition Zposition Zrotation Yrotation Xrotation 
	JOINT Hips
	{
		OFFSET 0.000000 0.000000 0.000000
		CHANNELS 6 Xposition Yposition Zposition Zrotation Yrotation Xrotation 
		JOINT LeftUpLeg
		{
			OFFSET 0.103456 1.857840 10.548501
			CHANNELS 3 Zrotation Yrotation Xrotation
			JOINT LeftLeg
			{
				OFFSET 43.499992 -0.000038 -0.000006
				CHANNELS 3 Zrotation Yrotation Xrotation
				JOINT LeftFoot
				{
					OFFSET 42.372196 0.000031 0.000002
					CHANNELS 3 Zrotation Yrotation Xrotation
					JOINT LeftToe
					{
						OFFSET 17.299974 -0.000010 -0.000017
						CHANNELS 3 Zrotation Yrotation Xrotation
						End Site
						{
							OFFSET 0.000000 0.000000 0.000000
						}
					}
				}
			}
		}
		JOINT RightUpLeg
		{
			OFFSET 0.103462 1.857831 -10.548510
			CHANNELS 3 Zrotation Yrotation Xrotation
			JOINT RightLeg
			{
				OFFSET 43.500046 -0.000015 0.000008
				CHANNELS 3 Zrotation Yrotation Xrotation
				JOINT RightFoot
				{
					OFFSET 42.372265 -0.000015 0.000004
					CHANNELS 3 Zrotation Yrotation Xrotation
					JOINT RightToe
					{
						OFFSET 17.299995 -0.000004 0.000013
						CHANNELS 3 Zrotation Yrotation Xrotation
						End Site
						{
							OFFSET 0.000000 0.000000 0.000000
						}
					}
				}
			}
		}
		JOINT Spine
		{
			OFFSET 6.901966 -2.603716 -0.000002
			CHANNELS 3 Zrotation Yrotation Xrotation
			JOINT Spine1
			{
				OFFSET 12.588102 -0.000001 0.000005
				CHANNELS 3 Zrotation Yrotation Xrotation
				JOINT Spine2
				{
					OFFSET 12.343201 -0.000023 -0.000011
					CHANNELS 3 Zrotation Yrotation Xrotation
					JOINT Neck
					{
						OFFSET 25.832901 0.000011 0.000007
						CHANNELS 3 Zrotation Yrotation Xrotation
						JOINT Head
						{
							OFFSET 11.766600 -0.000002 0.000002
							CHANNELS 3 Zrotation Yrotation Xrotation
							End Site
							{
								OFFSET 0.000000 0.000000 0.000000
							}
						}
					}
					JOINT LeftShoulder
					{
						OFFSET 19.745907 -1.480350 6.000119
						CHANNELS 3 Zrotation Yrotation Xrotation
						JOINT LeftArm
						{
							OFFSET 11.284122 -0.000013 -0.000023
							CHANNELS 3 Zrotation Yrotation Xrotation
							JOINT LeftForeArm
							{
								OFFSET 33.000057 0.000005 0.000025
								CHANNELS 3 Zrotation Yrotation Xrotation
								JOINT LeftHand
								{
									OFFSET 25.199997 0.000020 0.000019
									CHANNELS 3 Zrotation Yrotation Xrotation
									End Site
									{
										OFFSET 0.000000 0.000000 0.000000
									}
								}
							}
						}
					}
					JOINT RightShoulder
					{
						OFFSET 19.746096 -1.480352 -6.000062
						CHANNELS 3 Zrotation Yrotation Xrotation
						JOINT RightArm
						{
							OFFSET 11.284150 0.000007 -0.000012
							CHANNELS 3 Zrotation Yrotation Xrotation
							JOINT RightForeArm
							{
								OFFSET 33.000092 0.000019 0.000012
								CHANNELS 3 Zrotation Yrotation Xrotation
								JOINT RightHand
								{
									OFFSET 25.199797 0.000118 0.000427
									CHANNELS 3 Zrotation Yrotation Xrotation
									End Site
									{
										OFFSET 0.000000 0.000000 0.000000
									}
								}
							}
						}
					}
				}
			}
		}
	}
}
MOTION
Frames: 10
Frame Time: 0.033333
178.867715 0.000000 -512.792641 180.000000 -83.776097 180.000000 -0.826402 86.156067 1.944770 89.357625 2.762906 -175.269549 147.625687 -0.675991 162.433182 -18.233267 2.957656 -1.553245 61.333842 1.910392 1.730332 21.454550 0.003088 0.000000 -177.757681 -1.754897 -167.762273 -38.904884 -3.392658 -5.453344 93.688803 3.606794 -1.273698 21.454558 -0.003104 -0.000018 6.545532 0.346180 2.992210 3.094398 0.613566 5.992542 2.778170 0.649818 5.988753 10.894227 -9.959618 -9.823627 -16.275219 11.028702 -15.401723 -141.513173 -79.255814 -40.643058 29.898197 60.571880 54.877425 -37.943965 -13.695394 1.320394 7.529196 3.128226 8.537256 146.600079 75.624742 -32.673098 -19.546442 -53.426843 -15.816191 -33.466182 11.222740 -1.082888 7.338767 -1.978829 -10.300040 
178.400638 0.000000 -516.209067 180.000000 -84.606958 180.000000 -1.335562 85.646873 2.153188 89.261316 4.539848 -177.631264 145.388308 -4.391493 163.151458 -18.379902 3.130069 -1.064316 61.424274 -3.188746 -9.370810 21.454553 0.003101 0.000000 -178.575228 -5.242401 -168.330927 -36.172262 -3.885864 -3.150825 98.870301 2.013964 -2.179485 21.454557 -0.003111 -0.000018 6.690150 0.756904 2.921493 3.404370 1.428774 5.864105 3.087981 1.464237 5.855428 10.985249 -9.236503 -9.135894 -17.477387 10.077950 -14.396323 -141.591775 -79.746652 -40.541045 31.485140 61.021142 57.538442 -37.695394 -13.788725 1.320366 7.974160 6.075328 10.716675 147.262949 75.630336 -31.999020 -19.507003 -53.009180 -16.345211 -33.484046 11.385022 -1.093859 7.436367 -0.675093 -10.347370 
177.974147 0.000000 -519.583167 180.000000 -85.401509 180.000000 -1.480114 85.046783 2.308449 89.541099 6.321598 -179.796441 143.643031 -8.974198 163.346528 -20.642087 2.720979 0.723976 66.249393 -9.676642 -23.906260 21.454551 0.003093 0.000000 -179.758940 -8.083298 -171.281023 -35.372822 -3.386195 -1.806958 102.454101 1.159457 -2.228542 21.454560 -0.003105 -0.000017 6.890178 1.129669 2.785339 3.821326 2.167823 5.607027 3.504638 2.201735 5.593898 11.267269 -8.161951 -8.423782 -18.107009 8.976473 -13.169789 -141.209967 -80.414296 -40.899917 32.589346 61.112599 59.354002 -37.550731 -13.811364 1.323247 8.710452 9.612701 13.148053 147.922131 75.515637 -31.335962 -18.507543 -53.065997 -16.283675 -33.890893 11.360421 -1.101099 7.231961 0.786161 -10.553309 
177.586272 0.000000 -522.907614 180.000000 -86.159659 180.000000 -1.652371 84.928551 2.301015 89.455404 6.915133 178.635302 141.475293 -12.222103 163.082255 -26.761117 2.709580 4.395854 69.892861 -11.027305 -22.429646 21.454545 0.003083 -0.000003 178.580118 -9.574592 -173.668802 -34.518652 -2.883485 -0.609081 104.323094 0.379067 -2.521266 21.454560 -0.003110 -0.000018 6.972637 1.243802 2.451273 3.985244 2.403368 4.944540 3.668135 2.433286 4.929982 11.509868 -7.349299 -7.601896 -17.730597 8.462813 -11.972767 -141.601105 -80.721443 -40.491240 32.742342 60.567208 60.220747 -37.642163 -13.878006 1.324878 9.204349 9.698242 15.033188 150.169932 75.373740 -29.058084 -16.879588 -53.407537 -16.733875 -34.211267 11.035473 -1.086922 7.015607 2.592749 -9.370245 
177.235039 0.000000 -526.175077 180.000000 -86.881431 180.000000 -1.790300 85.506668 2.213214 89.504207 6.660062 178.090369 140.237936 -13.380201 165.164096 -34.958544 2.986244 3.892442 72.968967 -8.652221 -18.295512 21.454553 0.003088 0.000001 176.948550 -9.836819 -174.693249 -33.494951 -2.303011 0.112096 103.573494 -0.133626 -2.724416 21.454557 -0.003115 -0.000016 7.012600 1.216684 1.986866 4.054669 2.363705 4.015495 3.737126 2.388045 4.001186 12.470821 -6.704021 -7.129441 -18.163107 8.083619 -11.259985 -144.106951 -80.852733 -37.945799 30.812247 59.875822 60.190769 -37.214118 -13.961856 1.319915 9.145935 8.742583 15.252951 152.560034 75.717278 -26.604038 -13.911995 -54.501440 -18.908049 -34.430044 10.882593 -1.081767 6.762991 4.887568 -6.875323 
176.918477 0.000000 -529.378230 180.000000 -87.566947 180.000000 -1.865940 86.395844 2.084866 89.540514 6.179095 178.194575 139.907723 -13.248001 168.356349 -44.074360 2.689669 0.180096 76.321169 -3.956628 -13.399478 21.454551 0.003099 -0.000001 175.130982 -9.667408 -173.722597 -32.603054 -2.467010 0.090629 101.249010 -0.168662 -2.639768 21.454557 -0.003106 -0.000017 7.027856 1.132249 1.593539 4.074745 2.208245 3.226148 3.756945 2.227820 3.212768 12.655480 -5.465005 -7.206592 -17.891185 7.096415 -10.808720 -146.449201 -81.083853 -35.562995 26.450220 59.557542 57.370153 -36.248002 -13.659133 1.277158 8.678902 7.371434 13.923849 158.950919 75.916788 -20.082996 -9.720641 -55.317197 -22.236724 -34.486400 10.759156 -1.074950 6.732976 7.093492 -4.637951 
176.634615 0.000000 -532.509743 180.000000 -88.216424 180.000000 -2.038545 87.524597 1.886583 88.924756 5.184646 178.238449 140.626628 -12.692989 170.163085 -51.596052 2.495197 -3.011229 78.064254 -0.747483 -10.715929 21.454553 0.003087 -0.000000 173.209595 -8.986893 -173.086843 -30.532247 -2.649693 0.141536 98.387338 -0.244545 -2.354485 21.454555 -0.003116 -0.000019 6.882359 0.921858 1.324961 3.773384 1.800523 2.679228 3.455508 1.816796 2.668320 12.131592 -4.372988 -7.303368 -17.037552 6.589466 -10.552298 -146.521013 -81.655929 -35.471218 20.997011 59.703729 53.831958 -35.718003 -13.754251 1.270960 9.845301 6.496391 14.864027 165.207031 75.994467 -13.697992 -3.949490 -56.014675 -26.541968 -34.714413 10.664810 -1.073859 7.032370 7.968525 -2.468579 
176.381481 0.000000 -535.562287 180.000000 -88.830154 180.000000 -2.180365 88.520332 1.554126 88.265570 3.998568 177.894578 142.275791 -12.033405 170.948229 -58.488713 2.246116 -5.694234 78.635039 1.767196 -8.554074 21.454558 0.003099 -0.000001 171.484330 -8.120500 -172.982327 -28.252710 -2.942549 0.289763 95.774613 -0.343777 -1.833214 21.454560 -0.003124 -0.000019 6.716790 0.677742 1.210987 3.435037 1.319706 2.441437 3.117168 1.334559 2.433432 11.692080 -3.887923 -7.512061 -16.761901 6.018961 -10.498541 -148.562980 -82.183876 -33.386299 15.826790 59.604185 50.139664 -36.574833 -14.513932 1.340438 10.123893 5.165915 15.785336 171.126947 76.783866 -7.626953 2.010530 -56.878814 -31.194106 -34.553982 10.140076 -1.035865 7.364319 7.812019 -1.082175 
176.157103 0.000000 -538.528535 180.000000 -89.408490 180.000000 -2.248034 89.216850 1.227980 87.934543 2.970040 177.500930 145.260297 -11.449810 170.316600 -64.000307 2.027134 -8.224333 79.635436 4.192342 -6.223587 21.454550 0.003081 -0.000001 170.186758 -7.406404 -173.791418 -26.137821 -2.909886 0.895687 93.756046 -0.732836 -1.346794 21.454557 -0.003114 -0.000020 6.642885 0.485451 1.097936 3.282122 0.940009 2.209058 2.964235 0.953447 2.203351 11.070410 -4.105007 -7.481992 -16.865607 6.119336 -10.548712 -150.440927 -81.982494 -31.492168 10.328811 58.854606 45.516814 -38.432047 -15.070932 1.422146 9.897154 2.714080 17.140626 174.871107 77.400168 -3.789046 7.893496 -57.132979 -36.354505 -33.995412 9.808447 -1.001779 7.810840 6.732430 -0.821298 
175.959509 0.000000 -541.401157 180.000000 -89.951049 180.000000 -2.289671 89.724579 1.055726 87.784980 2.277370 177.268897 149.415183 -11.299687 168.845801 -67.621352 1.783840 -9.456414 80.671631 5.297202 -5.351562 21.454541 0.003069 0.000001 169.161328 -7.069908 -175.372921 -24.111589 -2.575569 2.002843 91.958573 -1.461258 -0.925674 21.454558 -0.003107 -0.000018 6.599406 0.369956 0.938879 3.191936 0.714249 1.887485 2.873991 0.725775 1.883134 10.627298 -3.579624 -7.252802 -17.057262 5.598433 -10.078379 -151.525875 -82.070187 -30.391125 5.310948 58.374198 41.076054 -40.603282 -15.815475 1.526942 9.276285 1.079827 16.717117 177.267082 77.339099 -1.346936 13.117085 -56.279990 -41.591570 -33.284782 9.534517 -0.968448 8.262933 5.425200 -0.972081 
